<svg version="1.1" id="Layer_1" xmlns="http://www.w3.org/2000/svg" xmlns:xlink="http://www.w3.org/1999/xlink" x="0px" y="0px"
	 width="100%" viewBox="0 0 364 235" enable-background="new 0 0 364 235" xml:space="preserve">
<path fill="none" opacity="1.000000" stroke="#000000" stroke-linecap="round" stroke-linejoin="round" stroke-width="5.000000"
	d="
M181.500000,102.500000 
	C176.643326,97.399094 170.362869,97.718971 164.547119,99.186729 
	C158.597275,100.688339 154.710922,105.405357 153.593842,111.517151 
	C152.472687,117.651291 152.304321,123.819511 155.957932,129.526932 
	C159.922821,135.720596 168.993912,138.491898 178.017685,135.046310 
	C179.837616,134.351395 180.623367,133.519882 180.547180,131.498215 
	C180.390289,127.335800 180.500000,123.163330 180.500000,118.818008 
	C176.385498,117.607452 172.460266,117.642143 168.500000,118.500000 
"/>
<path fill="none" opacity="1.000000" stroke="#000000" stroke-linecap="round" stroke-linejoin="round" stroke-width="6.000000"
	d="
M113.249992,99.000000 
	C113.333328,107.666664 113.690285,116.342171 113.410759,124.997116 
	C113.198868,131.557648 118.735886,136.887833 126.002991,136.567978 
	C133.103271,136.255463 138.444092,131.645309 138.486755,124.999916 
	C138.541336,116.500267 138.500000,108.000000 138.500000,99.500000 
"/>
<path fill="none" opacity="1.000000" stroke="#000000" stroke-linecap="round" stroke-linejoin="round" stroke-width="6.000000"
	d="
M219.500000,104.500000 
	C219.817047,101.532997 217.642151,100.963303 215.527130,99.943726 
	C207.222702,95.940498 197.580643,99.588478 194.624283,111.032104 
	C193.643494,114.828583 193.655457,118.936256 194.439163,123.011696 
	C197.006195,136.361008 208.524521,140.795883 219.500000,132.500000 
"/>
<path fill="none" opacity="1.000000" stroke="#000000" stroke-linecap="round" stroke-linejoin="round" stroke-width="5.000000"
	d="
M246.000000,102.500000 
	C244.050171,99.210258 239.583466,96.949936 236.027481,98.086029 
	C232.772751,99.125885 229.076004,99.909325 228.443542,104.492210 
	C227.810944,109.076126 228.943237,112.157478 233.011978,114.479004 
	C236.118332,116.251396 239.367950,117.771378 242.490829,119.516426 
	C246.018433,121.487625 246.827133,124.728996 246.517334,128.501419 
	C246.197098,132.401245 243.641144,134.970505 240.454514,135.831726 
	C235.782196,137.094467 230.862946,137.195068 226.451538,134.068375 
	C225.286911,133.242920 225.638092,132.411423 225.500000,131.500000 
"/>
<path fill="none" opacity="1.000000" stroke="#000000" stroke-linecap="round" stroke-linejoin="round" stroke-width="3.000000"
	d="
M96.000000,51.000000 
	C87.298569,53.196346 81.142555,58.223091 78.549583,67.014626 
	C78.038803,68.746468 78.023476,70.666504 78.021461,72.500023 
	C77.990631,100.499992 78.158577,128.501328 77.923012,156.499359 
	C77.826958,167.914597 88.087265,178.112411 99.500244,178.076508 
	C153.833038,177.905563 208.166962,177.905548 262.499756,178.076492 
	C273.912750,178.112396 284.173035,167.914581 284.076965,156.499359 
	C283.841400,128.501328 283.841370,100.498665 284.076965,72.500648 
	C284.173004,61.085247 273.912537,50.888618 262.499756,50.923561 
	C207.166962,51.092945 151.833328,51.000000 96.500000,51.000000 
"/>
</svg>